<svg xmlns="http://www.w3.org/2000/svg" xmlns:xlink="http://www.w3.org/1999/xlink" width="500" zoomAndPan="magnify" viewBox="0 0 375 374.999991" height="500" preserveAspectRatio="xMidYMid meet" version="1.0"><path fill="#ffffff" d="M 328.425781 5.324219 C 325.039062 1.933594 320.324219 0 315.605469 0 C 310.765625 0 306.167969 1.933594 302.78125 5.324219 L 164.03125 143.949219 C 160.886719 147.097656 159.074219 151.332031 158.832031 155.804688 L 156.410156 199.476562 C 156.167969 204.554688 158.105469 209.636719 161.734375 213.265625 C 165.121094 216.652344 169.71875 218.589844 174.554688 218.589844 L 175.523438 218.589844 L 219.195312 216.167969 C 223.546875 215.925781 227.78125 213.992188 230.929688 210.847656 L 369.675781 72.339844 C 373.066406 68.832031 375 64.234375 375 59.515625 C 375 54.675781 373.066406 50.082031 369.675781 46.570312 Z M 328.425781 5.324219 " fill-opacity="1" fill-rule="nonzero"/><path fill="#ffffff" d="M 61.261719 375 L 262.492188 375 C 296.277344 375 323.753906 347.515625 323.753906 313.738281 L 323.753906 189.691406 C 323.753906 179.667969 315.625 171.546875 305.609375 171.546875 C 295.589844 171.546875 287.464844 179.667969 287.464844 189.691406 L 287.464844 313.738281 C 287.464844 327.503906 276.265625 338.710938 262.492188 338.710938 L 61.261719 338.710938 C 47.488281 338.710938 36.289062 327.503906 36.289062 313.738281 L 36.289062 112.507812 C 36.289062 98.742188 47.488281 87.535156 61.261719 87.535156 L 185.316406 87.535156 C 195.332031 87.535156 203.460938 79.414062 203.460938 69.390625 C 203.460938 59.367188 195.332031 51.246094 185.316406 51.246094 L 61.261719 51.246094 C 27.476562 51.246094 0 78.730469 0 112.507812 L 0 313.738281 C 0 347.515625 27.476562 375 61.261719 375 Z M 61.261719 375 " fill-opacity="1" fill-rule="nonzero"/></svg>